# xmcd CD database file
#
# Track frame offsets:
#	150
#	11708
#	27989
#	43353
#	58568
#	70936
#	82337
#	92367
#	105593
#	118019
#	130510
#	142024
#	153498
#	167474
#	183310
#	193062
#	203055
#	213521
#	226139
#	241313
#	256779
#
# Disc length: 3550 seconds
#
# Revision: 0
# Processed by: cddbd v1.5.2PL0 Copyright (c) Steve Scherf et al.
# Submitted via: CDex 2.06
#
DISCID=210ddc15
DTITLE=Dinah Washington - Milestones Of A Legend - Disc 10
DYEAR=2017
DGENRE=Jazz
TTITLE0=Destination Moon
TTITLE1=Miss You
TTITLE2=A Handful of Stars
TTITLE3=Is You or Is You Ain't My Baby
TTITLE4=You're Nobody 'Til Somebody Loves You
TTITLE5=Red Sails on the Sunset
TTITLE6=Where Are You?
TTITLE7=Coquette
TTITLE8=Take Your Shoes off. Baby
TTITLE9=I Wanna Be Loved
TTITLE10=Don't Explain
TTITLE11=Everybodys's Somebody's Fool
TTITLE12=Invitation
TTITLE13=You're Crying
TTITLE14=Let's Fall in Love
TTITLE15=When Your Lover Has Gone
TTITLE16=A Stranger In Town
TTITLE17=God Bless the Child
TTITLE18=Blue Gardenia
TTITLE19=I Can't Face the Music (Whithout Singin'in the Blues)
TTITLE20=Sometimes I'm Happy
EXTD=YEAR: 2017
EXTT0=
EXTT1=
EXTT2=
EXTT3=
EXTT4=
EXTT5=
EXTT6=
EXTT7=
EXTT8=
EXTT9=
EXTT10=
EXTT11=
EXTT12=
EXTT13=
EXTT14=
EXTT15=
EXTT16=
EXTT17=
EXTT18=
EXTT19=
EXTT20=
PLAYORDER=
